HIERARCHY
ROOT Hips
{
	OFFSET 0.000000 0.000000 0.000000
	CHANNELS 6 Xposition Yposition Zposition Zrotation Yrotation Xrotation 
	JOINT LHipJoint
	{
		OFFSET 0.000000 0.000000 0.000000
		CHANNELS 3 Zrotation Yrotation Xrotation
		JOINT LeftUpLeg
		{
			OFFSET 1.363060 -1.794630 0.839290
			CHANNELS 3 Zrotation Yrotation Xrotation
			JOINT LeftLeg
			{
				OFFSET 2.448110 -6.726130 0.000000
				CHANNELS 3 Zrotation Yrotation Xrotation
				JOINT LeftFoot
				{
					OFFSET 2.562200 -7.039590 0.000000
					CHANNELS 3 Zrotation Yrotation Xrotation
					JOINT LeftToeBase
					{
						OFFSET 0.157640 -0.433110 2.322550
						CHANNELS 3 Zrotation Yrotation Xrotation
						End Site
						{
							OFFSET 0.000000 0.000000 0.000000
						}
					}
				}
			}
		}
	}
	JOINT RHipJoint
	{
		OFFSET 0.000000 0.000000 0.000000
		CHANNELS 3 Zrotation Yrotation Xrotation
		JOINT RightUpLeg
		{
			OFFSET -1.305520 -1.794630 0.839290
			CHANNELS 3 Zrotation Yrotation Xrotation
			JOINT RightLeg
			{
				OFFSET -2.542530 -6.985550 0.000000
				CHANNELS 3 Zrotation Yrotation Xrotation
				JOINT RightFoot
				{
					OFFSET -2.568260 -7.056230 0.000000
					CHANNELS 3 Zrotation Yrotation Xrotation
					JOINT RightToeBase
					{
						OFFSET -0.164730 -0.452590 2.363150
						CHANNELS 3 Zrotation Yrotation Xrotation
						End Site
						{
							OFFSET 0.000000 0.000000 0.000000
						}
					}
				}
			}
		}
	}
	JOINT LowerBack
	{
		OFFSET 0.000000 0.000000 0.000000
		CHANNELS 3 Zrotation Yrotation Xrotation
		JOINT Spine
		{
			OFFSET 0.028270 2.035590 -0.193380
			CHANNELS 3 Zrotation Yrotation Xrotation
			JOINT Spine1
			{
				OFFSET 0.056720 2.048850 -0.042750
				CHANNELS 3 Zrotation Yrotation Xrotation
				JOINT Neck
				{
					OFFSET 0.000000 0.000000 0.000000
					CHANNELS 3 Zrotation Yrotation Xrotation
					JOINT Neck1
					{
						OFFSET -0.054170 1.746240 0.172020
						CHANNELS 3 Zrotation Yrotation Xrotation
						JOINT Head
						{
							OFFSET 0.104070 1.761360 -0.123970
							CHANNELS 3 Zrotation Yrotation Xrotation
							End Site
							{
								OFFSET 0.000000 0.000000 0.000000
							}
						}
					}
				}
				JOINT LeftShoulder
				{
					OFFSET 0.000000 0.000000 0.000000
					CHANNELS 3 Zrotation Yrotation Xrotation
					JOINT LeftArm
					{
						OFFSET 3.362410 1.200890 -0.311210
						CHANNELS 3 Zrotation Yrotation Xrotation
						JOINT LeftForeArm
						{
							OFFSET 4.983000 -0.000000 -0.000000
							CHANNELS 3 Zrotation Yrotation Xrotation
							JOINT LeftHand
							{
								OFFSET 3.483560 -0.000000 -0.000000
								CHANNELS 3 Zrotation Yrotation Xrotation
								JOINT LeftFingerBase
								{
									OFFSET 0.000000 0.000000 0.000000
									CHANNELS 3 Zrotation Yrotation Xrotation
									JOINT LeftHandIndex1
									{
										OFFSET 0.715260 -0.000000 -0.000000
										CHANNELS 3 Zrotation Yrotation Xrotation
										End Site
										{
											OFFSET 0.000000 0.000000 0.000000
										}
									}
								}
								JOINT LThumb
								{
									OFFSET 0.000000 0.000000 0.000000
									CHANNELS 3 Zrotation Yrotation Xrotation
									End Site
									{
										OFFSET 0.000000 0.000000 0.000000
									}
								}
							}
						}
					}
				}
				JOINT RightShoulder
				{
					OFFSET 0.000000 0.000000 0.000000
					CHANNELS 3 Zrotation Yrotation Xrotation
					JOINT RightArm
					{
						OFFSET -3.136600 1.374050 -0.404650
						CHANNELS 3 Zrotation Yrotation Xrotation
						JOINT RightForeArm
						{
							OFFSET -5.241900 -0.000000 -0.000000
							CHANNELS 3 Zrotation Yrotation Xrotation
							JOINT RightHand
							{
								OFFSET -3.444170 -0.000000 -0.000000
								CHANNELS 3 Zrotation Yrotation Xrotation
								JOINT RightFingerBase
								{
									OFFSET 0.000000 0.000000 0.000000
									CHANNELS 3 Zrotation Yrotation Xrotation
									JOINT RightHandIndex1
									{
										OFFSET -0.622530 -0.000000 -0.000000
										CHANNELS 3 Zrotation Yrotation Xrotation
										End Site
										{
											OFFSET 0.000000 0.000000 0.000000
										}
									}
								}
								JOINT RThumb
								{
									OFFSET 0.000000 0.000000 0.000000
									CHANNELS 3 Zrotation Yrotation Xrotation
									End Site
									{
										OFFSET 0.000000 0.000000 0.000000
									}
								}
							}
						}
					}
				}
			}
		}
	}
}
MOTION
Frames: 5
Frame Time: 0.008333
2.379216 16.492332 0.923667 -175.346366 -64.295132 -143.925173 -9.190771 2.332959 -3.151165 -29.146356 20.149685 -66.892827 -5.309140 4.198786 38.039019 3.455904 13.360491 -16.416359 -1.563000 0.000000 -41.368200 8.286363 1.565550 3.840678 5.038573 3.975929 -64.917500 3.331373 -1.986269 30.433501 1.012248 5.725851 -1.592550 0.368400 -0.000001 -70.314500 4.836432 -6.615368 1.921902 0.959275 -6.887813 -2.216874 -4.997789 -7.008469 1.667974 17.538505 -19.992740 -14.177780 1.648554 0.325541 -2.272695 0.000000 0.000000 0.000000 30.722125 4.160142 3.793661 19.737185 -32.732066 -89.751407 2.383668 -18.498424 -0.116452 10.224016 -1.950160 -0.243881 -0.263696 0.689959 -0.000000 0.000000 0.000000 0.000000 0.000000 0.000000 0.000000 0.387100 -16.977603 -0.976924 74.309093 1.495609 25.169881 -178.237048 61.022784 179.842017 -17.646931 5.359910 -0.946469 0.321514 -0.631591 0.000000 0.000000 0.000000 0.000000 0.000000 0.000000 0.000000 
2.392847 16.482197 0.924423 -175.588288 -64.157985 -143.559767 -9.171197 2.322502 -3.183875 -29.219252 19.923713 -67.035669 -5.280484 4.227083 38.259108 3.516660 13.615405 -16.515632 -1.608100 -0.000000 -41.189200 8.291807 1.616531 3.829659 4.868208 3.996656 -65.255281 3.306862 -2.026248 30.672630 1.024069 5.807046 -1.636861 0.383500 0.000000 -70.329300 4.899199 -6.559594 2.036672 0.921138 -6.841468 -2.207058 -5.130631 -6.963836 1.534206 17.281763 -20.004122 -13.834559 1.519184 0.304956 -2.171605 0.000000 0.000000 0.000000 30.510393 3.882918 3.320006 17.707019 -32.233289 -85.157832 2.169321 -23.342081 -0.124852 10.410286 -1.140292 -0.173423 -0.251341 0.702563 -0.000000 0.000000 0.000000 0.000000 0.000000 0.000000 0.000000 0.369424 -16.905764 -0.857357 74.611120 1.148543 25.082964 -178.280982 61.210733 179.841642 -17.724362 5.256916 -0.934005 0.325215 -0.629674 0.000000 0.000000 0.000000 0.000000 0.000000 0.000000 0.000000 
2.405101 16.471516 0.925964 -175.773449 -64.032071 -143.235439 -9.154999 2.311019 -3.209065 -29.282353 19.702726 -67.212364 -5.254056 4.258739 38.487357 3.574469 13.846543 -16.626974 -1.654600 0.000000 -41.005800 8.291644 1.662115 3.825412 4.717052 4.039162 -65.599820 3.284016 -2.064073 30.905043 1.032616 5.867766 -1.678526 0.394800 0.000000 -70.341200 4.993160 -6.491818 2.140720 0.881386 -6.785080 -2.198679 -5.288950 -6.908524 1.396143 17.027882 -19.993816 -13.461731 1.386140 0.283395 -2.061311 0.000000 0.000000 0.000000 30.275073 3.631901 2.847980 15.626822 -31.737192 -81.293490 1.980742 -28.423005 -0.134872 10.861580 -0.215948 -0.091041 -0.244515 0.705932 -0.000000 0.000000 0.000000 0.000000 0.000000 0.000000 0.000000 0.376210 -16.833141 -0.739223 74.860611 0.837181 25.032181 -178.332920 61.391321 179.841478 -17.794040 5.150676 -0.920540 0.329483 -0.627403 0.000000 0.000000 0.000000 0.000000 0.000000 0.000000 0.000000 
2.415654 16.460292 0.928420 -175.900290 -63.919056 -142.949911 -9.142500 2.298813 -3.227660 -29.336978 19.487593 -67.424627 -5.230515 4.294057 38.722710 3.628648 14.050512 -16.750263 -1.702100 0.000000 -40.820500 8.285707 1.702709 3.826068 4.587645 4.099963 -65.951153 3.264019 -2.099703 31.128296 1.038729 5.912111 -1.717293 0.402800 -0.000000 -70.349900 5.118049 -6.414081 2.236684 0.843109 -6.720295 -2.191178 -5.462129 -6.844406 1.258017 16.777619 -19.965148 -13.070709 1.251504 0.261411 -1.945552 0.000000 0.000000 0.000000 30.012977 3.425016 2.382561 13.493971 -31.275894 -78.008675 1.798502 -33.698456 -0.145971 11.517550 0.853827 0.014465 -0.241678 0.700258 -0.000000 0.000000 0.000000 0.000000 0.000000 0.000000 0.000000 0.401617 -16.762317 -0.625373 75.050894 0.568753 25.019545 -178.391096 61.553254 179.841509 -17.852451 5.049480 -0.907074 0.334223 -0.625095 0.000000 0.000000 0.000000 0.000000 0.000000 0.000000 0.000000 
2.424341 16.448536 0.931841 -175.971814 -63.821769 -142.697923 -9.133778 2.286193 -3.240621 -29.384688 19.276665 -67.671498 -5.209990 4.332945 38.964606 3.678777 14.225802 -16.884119 -1.750200 -0.000000 -40.635800 8.274379 1.738913 3.829304 4.481127 4.172576 -66.309275 3.247851 -2.133610 31.342536 1.043306 5.945106 -1.754361 0.408500 -0.000001 -70.355300 5.272160 -6.327450 2.327518 0.808524 -6.647906 -2.184672 -5.641572 -6.772576 1.120357 16.529446 -19.918594 -12.669595 1.116350 0.239364 -1.827032 0.000000 0.000000 0.000000 29.728574 3.249836 1.931165 11.295102 -30.839475 -75.144243 1.606007 -39.131744 -0.157477 12.315790 2.058234 0.149591 -0.241389 0.687198 -0.000000 0.000000 0.000000 0.000000 0.000000 0.000000 0.000000 0.438687 -16.692542 -0.516620 75.180900 0.338232 25.040665 -178.453455 61.687973 179.841705 -17.895987 4.962121 -0.895109 0.339226 -0.623060 0.000000 0.000000 0.000000 0.000000 0.000000 0.000000 0.000000 
